<svg width="1024" height="1024" viewBox="0 0 1024 1024" fill="none" xmlns="http://www.w3.org/2000/svg">
<g clip-path="url(#clip0_182_19)">
<path d="M612.283 48.1887C625.496 46.0953 647.01 49.7669 659.498 54.1301C674.701 59.4419 689.252 67.9192 703.298 75.7141C718.677 84.3343 734.102 92.872 749.572 101.326C768.927 111.916 788.228 122.606 807.473 133.396C840.683 151.785 870.254 166.532 883.97 205.384C893.264 231.712 891.051 259.314 891.044 286.774L891.035 375.676L891.027 510.719C891.027 548.514 892.711 592.842 885.28 629.363C877.45 668.196 860.873 704.734 836.807 736.199C819.076 759.099 797.811 779.03 773.812 795.243C753.081 809.457 728.663 821.54 706.376 833.38L617.657 880.867L519.187 933.624C490.696 948.991 465.95 966.39 433.129 970.741C420.834 972.69 402.72 969.583 391.229 965.263C381.115 961.46 370.688 955.51 361.175 950.28L324.758 930.253L256.121 892.792C236.955 882.325 217.038 872.18 199.807 858.867C174.606 839.396 159.573 811.138 156.147 779.58C153.961 759.436 154.618 735.47 154.621 714.854L154.558 621.205L154.822 470.301C155.178 436.128 153.699 403.213 160.327 369.35C166.568 336.451 180.643 305.541 201.361 279.235C215.839 261.25 232.92 245.526 252.038 232.581C269.567 220.687 292.408 208.988 311.365 198.724L398.702 151.378L502.977 95.0881L543.077 73.4368C567.921 60.1065 583.278 51.3671 612.283 48.1887ZM833.058 194.304C823.696 186.764 810.462 183.336 798.57 184.177C771.778 187.62 742.31 206.444 718.286 219.565L628.893 268.315C589.049 289.644 549.367 311.277 509.854 333.213C493.187 342.415 468.999 354.487 453.64 364.719C437.593 375.25 423.409 388.377 411.669 403.562C393.449 427.391 381.387 455.347 376.551 484.951C373.498 502.539 373.265 522.833 373.19 540.702L373.144 586.463L373.108 737.774L373.06 834.782C373.036 850.93 372.755 867.066 373.301 883.201C374.493 918.481 396.493 935.629 430.624 933.974C454.078 931.219 483.649 912.278 504.852 900.772L597.104 850.665L686.12 802.92C707.445 791.522 728.945 780.569 749.24 767.331C798.823 734.99 835.505 681.466 848.284 623.706C855.778 589.832 854.001 552.144 854.009 517.346L854.081 399.85C854.507 364.925 854.64 329.996 854.48 295.069C854.474 284.199 854.406 273.352 854.338 262.486C854.188 238.496 853.425 210.709 833.058 194.304ZM699.028 114.926C675.263 101.784 646.691 83.1971 618.776 85.2073C589.573 87.7692 569.517 101.526 544.458 115.132L465.686 158.248L345.258 223.919C316.332 239.825 284.352 255.692 258.192 275.931C226.008 300.832 206.21 336.477 198.533 376.138C192.736 406.084 194.036 436.541 193.35 466.938C192.258 519.066 193.754 571.457 193.968 623.546L194.003 719.207C194.002 757.248 188.736 801.436 221.267 828.343C231.847 837.093 242.715 842.79 254.608 849.344L288.732 868.112L319.865 885.469C324.589 888.118 331.038 892.047 335.685 894.323L335.066 888.161C333.868 859.228 334.498 827.775 334.504 798.64L334.711 648.9L334.819 558.867C334.801 526.582 333.303 498.295 340.325 466.563C348.141 430.493 365.381 397.139 390.288 369.904C418.661 339.049 446.341 325.558 482.31 306.174L539.163 275.25L694.589 190.489L740.329 165.625C748.779 161.046 757.55 156.593 765.789 151.719L699.028 114.926Z" fill="black"/>
<path d="M612.283 48.1887C625.496 46.0953 647.01 49.7669 659.498 54.1301C674.701 59.4419 689.252 67.9192 703.298 75.7141C718.677 84.3343 734.102 92.872 749.572 101.326C768.927 111.916 788.228 122.606 807.473 133.396C840.683 151.785 870.254 166.532 883.97 205.384C893.264 231.712 891.051 259.314 891.044 286.774L891.035 375.676L891.027 510.719C891.027 548.514 892.711 592.842 885.28 629.363C877.45 668.196 860.873 704.734 836.807 736.199C819.076 759.099 797.811 779.03 773.812 795.243C753.081 809.457 728.663 821.54 706.376 833.38L617.657 880.867L519.187 933.624C490.696 948.991 465.95 966.39 433.129 970.741C420.834 972.69 402.72 969.583 391.229 965.263C381.115 961.46 370.688 955.51 361.175 950.28L324.758 930.253L256.121 892.792C236.955 882.325 217.038 872.18 199.807 858.867C174.606 839.396 159.573 811.138 156.147 779.58C153.961 759.436 154.618 735.47 154.621 714.854L154.558 621.205L154.822 470.301C155.178 436.128 153.699 403.213 160.327 369.35C166.568 336.451 180.643 305.541 201.361 279.235C215.839 261.25 232.92 245.526 252.038 232.581C269.567 220.687 292.408 208.988 311.365 198.724L398.702 151.378L502.977 95.0881L543.077 73.4368C567.921 60.1065 583.278 51.3671 612.283 48.1887ZM833.058 194.304C823.696 186.764 810.462 183.336 798.57 184.177C771.778 187.62 742.31 206.444 718.286 219.565L628.893 268.315C589.049 289.644 549.367 311.277 509.854 333.213C493.187 342.415 468.999 354.487 453.64 364.719C437.593 375.25 423.409 388.377 411.669 403.562C393.449 427.391 381.387 455.347 376.551 484.951C373.498 502.539 373.265 522.833 373.19 540.702L373.144 586.463L373.108 737.774L373.06 834.782C373.036 850.93 372.755 867.066 373.301 883.201C374.493 918.481 396.493 935.629 430.624 933.974C454.078 931.219 483.649 912.278 504.852 900.772L597.104 850.665L686.12 802.92C707.445 791.522 728.945 780.569 749.24 767.331C798.823 734.99 835.505 681.466 848.284 623.706C855.778 589.832 854.001 552.144 854.009 517.346L854.081 399.85C854.507 364.925 854.64 329.996 854.48 295.069C854.474 284.199 854.406 273.352 854.338 262.486C854.188 238.496 853.425 210.709 833.058 194.304ZM699.028 114.926C675.263 101.784 646.691 83.1971 618.776 85.2073C589.573 87.7692 569.517 101.526 544.458 115.132L465.686 158.248L345.258 223.919C316.332 239.825 284.352 255.692 258.192 275.931C226.008 300.832 206.21 336.477 198.533 376.138C192.736 406.084 194.036 436.541 193.35 466.938C192.258 519.066 193.754 571.457 193.968 623.546L194.003 719.207C194.002 757.248 188.736 801.436 221.267 828.343C231.847 837.093 242.715 842.79 254.608 849.344L288.732 868.112L319.865 885.469C324.589 888.118 331.038 892.047 335.685 894.323L335.066 888.161C333.868 859.228 334.498 827.775 334.504 798.64L334.711 648.9L334.819 558.867C334.801 526.582 333.303 498.295 340.325 466.563C348.141 430.493 365.381 397.139 390.288 369.904C418.661 339.049 446.341 325.558 482.31 306.174L539.163 275.25L694.589 190.489L740.329 165.625C748.779 161.046 757.55 156.593 765.789 151.719L699.028 114.926Z" stroke="black"/>
<path d="M707.136 316.628C721.059 315.692 731.348 318.341 738.451 324.629C745.562 330.925 749.575 340.951 750.75 354.977C752.107 371.153 751.571 386.95 751.565 403.22L751.606 477.994L751.608 538.359V538.36C751.633 572.695 751.503 598.89 737.268 631.095C728.146 651.702 714.527 670.004 697.41 684.661L697.409 684.662C676.943 702.314 659.598 710.334 635.98 722.932L635.978 722.933L586.056 749.815L544.081 772.435C534.514 777.579 525.114 783.188 515.06 787.067C513.944 787.441 512.739 787.881 511.654 788.086C499.816 790.33 491.415 788.801 485.444 784.882C479.468 780.96 475.838 774.585 473.666 766.955C471.493 759.325 470.794 750.489 470.643 741.717C470.492 732.925 470.89 724.301 470.896 716.971L470.927 647.705L470.959 556.256L470.955 552.466C470.837 513.478 469.04 479.71 492.344 445.513C510.52 418.843 533.546 407.36 560.949 392.612L560.951 392.61L602.102 370.225H602.103L660.639 338.258C667.632 334.456 675.45 329.791 683.469 325.685C691.468 321.589 699.592 318.09 707.136 316.628ZM713.285 496.62C644.143 531.96 575.912 571.385 507.254 607.595L506.988 607.736V608.036C506.983 613.716 506.787 647.908 506.725 681.064C506.694 697.638 506.696 713.95 506.774 726.3C506.813 732.475 506.871 737.661 506.952 741.396C506.992 743.262 507.039 744.77 507.092 745.858C507.119 746.401 507.147 746.845 507.178 747.178C507.194 747.344 507.21 747.488 507.228 747.606C507.244 747.713 507.266 747.832 507.301 747.929L507.353 748.069L507.472 748.158L507.937 748.503L508.195 748.695L508.477 748.54L607.909 693.874L607.91 693.873C618.778 687.883 631.73 681.28 644.136 674.15C656.55 667.015 668.482 659.315 677.361 651.088C692.481 637.21 703.503 619.447 709.22 599.735C711.523 591.803 713.05 583.665 713.78 575.437C714.03 572.658 714.449 554.214 714.645 535.938C714.743 526.793 714.786 517.678 714.724 510.568C714.693 507.013 714.635 503.956 714.545 501.646C714.501 500.491 714.448 499.519 714.385 498.762C714.324 498.021 714.251 497.445 714.156 497.112L714.125 497.002L714.049 496.917L713.886 496.734L713.629 496.444L713.285 496.62ZM711.494 352.851C709.637 352.076 708.003 352.436 706.092 352.578L706.015 352.583L705.944 352.612C698.889 355.425 686.232 362.852 679.152 366.748H679.151L629.312 394.263L569.9 426.668C547.09 439.062 525.912 446.909 515.215 472.603C506.341 493.917 506.996 512.768 506.979 535.002L506.955 567.674V568.538L507.704 568.109L514.16 564.408L651.968 489.63H651.969L694.011 466.743C699.714 463.658 709.097 458.251 714.832 455.792L715.136 455.662L715.135 455.33C715.038 434.764 715.049 414.198 715.169 393.633V393.63C715.172 389.759 715.464 380.757 715.231 372.222C715.115 367.951 714.866 363.773 714.382 360.388C714.14 358.696 713.837 357.189 713.458 355.96C713.082 354.746 712.613 353.744 712.004 353.12L711.945 353.06L711.868 353.022L711.494 352.851Z" fill="black" stroke="black"/>
</g>
<defs>
<clipPath id="clip0_182_19">
<rect width="1024" height="1024" fill="white"/>
</clipPath>
</defs>
</svg>
